<svg id="visual" viewBox="0 0 1920 1080" width="1920" height="1080" xmlns="http://www.w3.org/2000/svg" xmlns:xlink="http://www.w3.org/1999/xlink" version="1.1"><rect x="0" y="0" width="1920" height="1080" fill="#ffffff"></rect><path d="M0 649L274 720L549 683L823 642L1097 729L1371 633L1646 657L1920 757L1920 1081L1646 1081L1371 1081L1097 1081L823 1081L549 1081L274 1081L0 1081Z" fill="#12bcd9"></path><path d="M0 727L274 711L549 702L823 823L1097 710L1371 687L1646 724L1920 690L1920 1081L1646 1081L1371 1081L1097 1081L823 1081L549 1081L274 1081L0 1081Z" fill="#50c1d9"></path><path d="M0 848L274 775L549 854L823 850L1097 736L1371 831L1646 809L1920 820L1920 1081L1646 1081L1371 1081L1097 1081L823 1081L549 1081L274 1081L0 1081Z" fill="#70c5da"></path><path d="M0 899L274 853L549 800L823 872L1097 805L1371 878L1646 827L1920 781L1920 1081L1646 1081L1371 1081L1097 1081L823 1081L549 1081L274 1081L0 1081Z" fill="#89cada"></path><path d="M0 869L274 833L549 903L823 847L1097 854L1371 836L1646 933L1920 918L1920 1081L1646 1081L1371 1081L1097 1081L823 1081L549 1081L274 1081L0 1081Z" fill="#a0ceda"></path><path d="M0 955L274 907L549 932L823 973L1097 910L1371 914L1646 888L1920 966L1920 1081L1646 1081L1371 1081L1097 1081L823 1081L549 1081L274 1081L0 1081Z" fill="#b5d3da"></path><path d="M0 998L274 952L549 943L823 1000L1097 984L1371 964L1646 949L1920 999L1920 1081L1646 1081L1371 1081L1097 1081L823 1081L549 1081L274 1081L0 1081Z" fill="#c8d7db"></path><path d="M0 1043L274 1019L549 997L823 1039L1097 1048L1371 1041L1646 1032L1920 990L1920 1081L1646 1081L1371 1081L1097 1081L823 1081L549 1081L274 1081L0 1081Z" fill="#dbdbdb"></path></svg>