<?xml version="1.0" standalone="no"?>
<svg xmlns:xlink="http://www.w3.org/1999/xlink" id="wave" style="transform:rotate(0deg); transition: 0.3s" viewBox="0 0 1440 490" version="1.1" xmlns="http://www.w3.org/2000/svg"><defs><linearGradient id="sw-gradient-0" x1="0" x2="0" y1="1" y2="0"><stop stop-color="rgba(18, 188, 217, 1)" offset="0%"/><stop stop-color="rgba(255, 255, 255, 1)" offset="100%"/></linearGradient></defs><path style="transform:translate(0, 0px); opacity:1" fill="url(#sw-gradient-0)" d="M0,49L48,73.5C96,98,192,147,288,171.5C384,196,480,196,576,187.8C672,180,768,163,864,171.5C960,180,1056,212,1152,245C1248,278,1344,310,1440,285.8C1536,261,1632,180,1728,130.7C1824,82,1920,65,2016,81.7C2112,98,2208,147,2304,163.3C2400,180,2496,163,2592,138.8C2688,114,2784,82,2880,122.5C2976,163,3072,278,3168,334.8C3264,392,3360,392,3456,351.2C3552,310,3648,229,3744,204.2C3840,180,3936,212,4032,212.3C4128,212,4224,180,4320,147C4416,114,4512,82,4608,114.3C4704,147,4800,245,4896,253.2C4992,261,5088,180,5184,147C5280,114,5376,131,5472,187.8C5568,245,5664,343,5760,334.8C5856,327,5952,212,6048,138.8C6144,65,6240,33,6336,40.8C6432,49,6528,98,6624,138.8C6720,180,6816,212,6864,228.7L6912,245L6912,490L6864,490C6816,490,6720,490,6624,490C6528,490,6432,490,6336,490C6240,490,6144,490,6048,490C5952,490,5856,490,5760,490C5664,490,5568,490,5472,490C5376,490,5280,490,5184,490C5088,490,4992,490,4896,490C4800,490,4704,490,4608,490C4512,490,4416,490,4320,490C4224,490,4128,490,4032,490C3936,490,3840,490,3744,490C3648,490,3552,490,3456,490C3360,490,3264,490,3168,490C3072,490,2976,490,2880,490C2784,490,2688,490,2592,490C2496,490,2400,490,2304,490C2208,490,2112,490,2016,490C1920,490,1824,490,1728,490C1632,490,1536,490,1440,490C1344,490,1248,490,1152,490C1056,490,960,490,864,490C768,490,672,490,576,490C480,490,384,490,288,490C192,490,96,490,48,490L0,490Z"/><defs><linearGradient id="sw-gradient-1" x1="0" x2="0" y1="1" y2="0"><stop stop-color="rgba(255, 255, 255, 1)" offset="0%"/><stop stop-color="rgba(235.877, 246.901, 248.597, 1)" offset="100%"/></linearGradient></defs><path style="transform:translate(0, 50px); opacity:0.9" fill="url(#sw-gradient-1)" d="M0,392L48,334.8C96,278,192,163,288,163.3C384,163,480,278,576,269.5C672,261,768,131,864,89.8C960,49,1056,98,1152,171.5C1248,245,1344,343,1440,375.7C1536,408,1632,376,1728,343C1824,310,1920,278,2016,228.7C2112,180,2208,114,2304,89.8C2400,65,2496,82,2592,130.7C2688,180,2784,261,2880,261.3C2976,261,3072,180,3168,147C3264,114,3360,131,3456,187.8C3552,245,3648,343,3744,383.8C3840,425,3936,408,4032,359.3C4128,310,4224,229,4320,196C4416,163,4512,180,4608,220.5C4704,261,4800,327,4896,367.5C4992,408,5088,425,5184,392C5280,359,5376,278,5472,261.3C5568,245,5664,294,5760,285.8C5856,278,5952,212,6048,155.2C6144,98,6240,49,6336,24.5C6432,0,6528,0,6624,49C6720,98,6816,196,6864,245L6912,294L6912,490L6864,490C6816,490,6720,490,6624,490C6528,490,6432,490,6336,490C6240,490,6144,490,6048,490C5952,490,5856,490,5760,490C5664,490,5568,490,5472,490C5376,490,5280,490,5184,490C5088,490,4992,490,4896,490C4800,490,4704,490,4608,490C4512,490,4416,490,4320,490C4224,490,4128,490,4032,490C3936,490,3840,490,3744,490C3648,490,3552,490,3456,490C3360,490,3264,490,3168,490C3072,490,2976,490,2880,490C2784,490,2688,490,2592,490C2496,490,2400,490,2304,490C2208,490,2112,490,2016,490C1920,490,1824,490,1728,490C1632,490,1536,490,1440,490C1344,490,1248,490,1152,490C1056,490,960,490,864,490C768,490,672,490,576,490C480,490,384,490,288,490C192,490,96,490,48,490L0,490Z"/></svg>