<?xml version="1.0" standalone="no"?>
<svg xmlns:xlink="http://www.w3.org/1999/xlink" id="wave" style="transform:rotate(0deg); transition: 0.3s" viewBox="0 0 1440 490" version="1.1" xmlns="http://www.w3.org/2000/svg"><defs><linearGradient id="sw-gradient-0" x1="0" x2="0" y1="1" y2="0"><stop stop-color="rgba(255, 255, 255, 1)" offset="0%"/><stop stop-color="rgba(183, 235, 243, 1)" offset="100%"/></linearGradient></defs><path style="transform:translate(0, 0px); opacity:1" fill="url(#sw-gradient-0)" d="M0,294L48,253.2C96,212,192,131,288,138.8C384,147,480,245,576,236.8C672,229,768,114,864,130.7C960,147,1056,294,1152,302.2C1248,310,1344,180,1440,163.3C1536,147,1632,245,1728,310.3C1824,376,1920,408,2016,367.5C2112,327,2208,212,2304,147C2400,82,2496,65,2592,57.2C2688,49,2784,49,2880,81.7C2976,114,3072,180,3168,220.5C3264,261,3360,278,3456,277.7C3552,278,3648,261,3744,236.8C3840,212,3936,180,4032,212.3C4128,245,4224,343,4320,392C4416,441,4512,441,4608,408.3C4704,376,4800,310,4896,253.2C4992,196,5088,147,5184,155.2C5280,163,5376,229,5472,261.3C5568,294,5664,294,5760,310.3C5856,327,5952,359,6048,367.5C6144,376,6240,359,6336,310.3C6432,261,6528,180,6624,147C6720,114,6816,131,6864,138.8L6912,147L6912,490L6864,490C6816,490,6720,490,6624,490C6528,490,6432,490,6336,490C6240,490,6144,490,6048,490C5952,490,5856,490,5760,490C5664,490,5568,490,5472,490C5376,490,5280,490,5184,490C5088,490,4992,490,4896,490C4800,490,4704,490,4608,490C4512,490,4416,490,4320,490C4224,490,4128,490,4032,490C3936,490,3840,490,3744,490C3648,490,3552,490,3456,490C3360,490,3264,490,3168,490C3072,490,2976,490,2880,490C2784,490,2688,490,2592,490C2496,490,2400,490,2304,490C2208,490,2112,490,2016,490C1920,490,1824,490,1728,490C1632,490,1536,490,1440,490C1344,490,1248,490,1152,490C1056,490,960,490,864,490C768,490,672,490,576,490C480,490,384,490,288,490C192,490,96,490,48,490L0,490Z"/><defs><linearGradient id="sw-gradient-1" x1="0" x2="0" y1="1" y2="0"><stop stop-color="rgba(255, 255, 255, 1)" offset="0%"/><stop stop-color="rgba(218, 227, 232, 1)" offset="100%"/></linearGradient></defs><path style="transform:translate(0, 50px); opacity:0.9" fill="url(#sw-gradient-1)" d="M0,392L48,392C96,392,192,392,288,351.2C384,310,480,229,576,228.7C672,229,768,310,864,302.2C960,294,1056,196,1152,179.7C1248,163,1344,229,1440,228.7C1536,229,1632,163,1728,163.3C1824,163,1920,229,2016,277.7C2112,327,2208,359,2304,383.8C2400,408,2496,425,2592,367.5C2688,310,2784,180,2880,130.7C2976,82,3072,114,3168,114.3C3264,114,3360,82,3456,73.5C3552,65,3648,82,3744,98C3840,114,3936,131,4032,155.2C4128,180,4224,212,4320,253.2C4416,294,4512,343,4608,334.8C4704,327,4800,261,4896,212.3C4992,163,5088,131,5184,106.2C5280,82,5376,65,5472,65.3C5568,65,5664,82,5760,114.3C5856,147,5952,196,6048,236.8C6144,278,6240,310,6336,302.2C6432,294,6528,245,6624,204.2C6720,163,6816,131,6864,114.3L6912,98L6912,490L6864,490C6816,490,6720,490,6624,490C6528,490,6432,490,6336,490C6240,490,6144,490,6048,490C5952,490,5856,490,5760,490C5664,490,5568,490,5472,490C5376,490,5280,490,5184,490C5088,490,4992,490,4896,490C4800,490,4704,490,4608,490C4512,490,4416,490,4320,490C4224,490,4128,490,4032,490C3936,490,3840,490,3744,490C3648,490,3552,490,3456,490C3360,490,3264,490,3168,490C3072,490,2976,490,2880,490C2784,490,2688,490,2592,490C2496,490,2400,490,2304,490C2208,490,2112,490,2016,490C1920,490,1824,490,1728,490C1632,490,1536,490,1440,490C1344,490,1248,490,1152,490C1056,490,960,490,864,490C768,490,672,490,576,490C480,490,384,490,288,490C192,490,96,490,48,490L0,490Z"/></svg>