<?xml version="1.0" standalone="no"?>
<svg xmlns:xlink="http://www.w3.org/1999/xlink" id="wave" style="transform:rotate(0deg); transition: 0.3s" viewBox="0 0 1440 490" version="1.1" xmlns="http://www.w3.org/2000/svg"><defs><linearGradient id="sw-gradient-0" x1="0" x2="0" y1="1" y2="0"><stop stop-color="rgba(18, 188, 217, 0.48)" offset="0%"/><stop stop-color="rgba(255, 255, 255, 1)" offset="100%"/></linearGradient></defs><path style="transform:translate(0, 0px); opacity:1" fill="url(#sw-gradient-0)" d="M0,0L40,57.2C80,114,160,229,240,228.7C320,229,400,114,480,81.7C560,49,640,98,720,155.2C800,212,880,278,960,269.5C1040,261,1120,180,1200,171.5C1280,163,1360,229,1440,228.7C1520,229,1600,163,1680,114.3C1760,65,1840,33,1920,16.3C2000,0,2080,0,2160,0C2240,0,2320,0,2400,0C2480,0,2560,0,2640,73.5C2720,147,2800,294,2880,326.7C2960,359,3040,278,3120,228.7C3200,180,3280,163,3360,179.7C3440,196,3520,245,3600,228.7C3680,212,3760,131,3840,89.8C3920,49,4000,49,4080,57.2C4160,65,4240,82,4320,81.7C4400,82,4480,65,4560,81.7C4640,98,4720,147,4800,147C4880,147,4960,98,5040,89.8C5120,82,5200,114,5280,122.5C5360,131,5440,114,5520,147C5600,180,5680,261,5720,302.2L5760,343L5760,490L5720,490C5680,490,5600,490,5520,490C5440,490,5360,490,5280,490C5200,490,5120,490,5040,490C4960,490,4880,490,4800,490C4720,490,4640,490,4560,490C4480,490,4400,490,4320,490C4240,490,4160,490,4080,490C4000,490,3920,490,3840,490C3760,490,3680,490,3600,490C3520,490,3440,490,3360,490C3280,490,3200,490,3120,490C3040,490,2960,490,2880,490C2800,490,2720,490,2640,490C2560,490,2480,490,2400,490C2320,490,2240,490,2160,490C2080,490,2000,490,1920,490C1840,490,1760,490,1680,490C1600,490,1520,490,1440,490C1360,490,1280,490,1200,490C1120,490,1040,490,960,490C880,490,800,490,720,490C640,490,560,490,480,490C400,490,320,490,240,490C160,490,80,490,40,490L0,490Z"/><defs><linearGradient id="sw-gradient-1" x1="0" x2="0" y1="1" y2="0"><stop stop-color="rgba(255, 255, 255, 1)" offset="0%"/><stop stop-color="rgba(255, 255, 255, 1)" offset="100%"/></linearGradient></defs><path style="transform:translate(0, 50px); opacity:0.9" fill="url(#sw-gradient-1)" d="M0,196L40,236.8C80,278,160,359,240,334.8C320,310,400,180,480,138.8C560,98,640,147,720,196C800,245,880,294,960,302.2C1040,310,1120,278,1200,236.8C1280,196,1360,147,1440,106.2C1520,65,1600,33,1680,65.3C1760,98,1840,196,1920,236.8C2000,278,2080,261,2160,220.5C2240,180,2320,114,2400,122.5C2480,131,2560,212,2640,236.8C2720,261,2800,229,2880,204.2C2960,180,3040,163,3120,204.2C3200,245,3280,343,3360,392C3440,441,3520,441,3600,441C3680,441,3760,441,3840,416.5C3920,392,4000,343,4080,310.3C4160,278,4240,261,4320,285.8C4400,310,4480,376,4560,392C4640,408,4720,376,4800,343C4880,310,4960,278,5040,269.5C5120,261,5200,278,5280,269.5C5360,261,5440,229,5520,187.8C5600,147,5680,98,5720,73.5L5760,49L5760,490L5720,490C5680,490,5600,490,5520,490C5440,490,5360,490,5280,490C5200,490,5120,490,5040,490C4960,490,4880,490,4800,490C4720,490,4640,490,4560,490C4480,490,4400,490,4320,490C4240,490,4160,490,4080,490C4000,490,3920,490,3840,490C3760,490,3680,490,3600,490C3520,490,3440,490,3360,490C3280,490,3200,490,3120,490C3040,490,2960,490,2880,490C2800,490,2720,490,2640,490C2560,490,2480,490,2400,490C2320,490,2240,490,2160,490C2080,490,2000,490,1920,490C1840,490,1760,490,1680,490C1600,490,1520,490,1440,490C1360,490,1280,490,1200,490C1120,490,1040,490,960,490C880,490,800,490,720,490C640,490,560,490,480,490C400,490,320,490,240,490C160,490,80,490,40,490L0,490Z"/></svg>