<?xml version="1.0" standalone="no"?>
<svg xmlns:xlink="http://www.w3.org/1999/xlink" id="wave" style="transform:rotate(0deg); transition: 0.3s" viewBox="0 0 1440 490" version="1.1" xmlns="http://www.w3.org/2000/svg"><defs><linearGradient id="sw-gradient-0" x1="0" x2="0" y1="1" y2="0"><stop stop-color="rgba(162.772, 237.817, 255, 1)" offset="0%"/><stop stop-color="rgba(18, 188, 217, 1)" offset="100%"/></linearGradient></defs><path style="transform:translate(0, 0px); opacity:1" fill="url(#sw-gradient-0)" d="M0,196L80,187.8C160,180,320,163,480,171.5C640,180,800,212,960,196C1120,180,1280,114,1440,89.8C1600,65,1760,82,1920,98C2080,114,2240,131,2400,155.2C2560,180,2720,212,2880,253.2C3040,294,3200,343,3360,343C3520,343,3680,294,3840,228.7C4000,163,4160,82,4320,114.3C4480,147,4640,294,4800,359.3C4960,425,5120,408,5280,334.8C5440,261,5600,131,5760,106.2C5920,82,6080,163,6240,187.8C6400,212,6560,180,6720,187.8C6880,196,7040,245,7200,220.5C7360,196,7520,98,7680,106.2C7840,114,8000,229,8160,228.7C8320,229,8480,114,8640,57.2C8800,0,8960,0,9120,0C9280,0,9440,0,9600,16.3C9760,33,9920,65,10080,138.8C10240,212,10400,327,10560,351.2C10720,376,10880,310,11040,245C11200,180,11360,114,11440,81.7L11520,49L11520,490L11440,490C11360,490,11200,490,11040,490C10880,490,10720,490,10560,490C10400,490,10240,490,10080,490C9920,490,9760,490,9600,490C9440,490,9280,490,9120,490C8960,490,8800,490,8640,490C8480,490,8320,490,8160,490C8000,490,7840,490,7680,490C7520,490,7360,490,7200,490C7040,490,6880,490,6720,490C6560,490,6400,490,6240,490C6080,490,5920,490,5760,490C5600,490,5440,490,5280,490C5120,490,4960,490,4800,490C4640,490,4480,490,4320,490C4160,490,4000,490,3840,490C3680,490,3520,490,3360,490C3200,490,3040,490,2880,490C2720,490,2560,490,2400,490C2240,490,2080,490,1920,490C1760,490,1600,490,1440,490C1280,490,1120,490,960,490C800,490,640,490,480,490C320,490,160,490,80,490L0,490Z"/><defs><linearGradient id="sw-gradient-1" x1="0" x2="0" y1="1" y2="0"><stop stop-color="rgba(255, 255, 255, 1)" offset="0%"/><stop stop-color="rgba(255, 255, 255, 1)" offset="100%"/></linearGradient></defs><path style="transform:translate(0, 50px); opacity:0.9" fill="url(#sw-gradient-1)" d="M0,343L80,302.2C160,261,320,180,480,147C640,114,800,131,960,187.8C1120,245,1280,343,1440,359.3C1600,376,1760,310,1920,294C2080,278,2240,310,2400,343C2560,376,2720,408,2880,424.7C3040,441,3200,441,3360,432.8C3520,425,3680,408,3840,343C4000,278,4160,163,4320,155.2C4480,147,4640,245,4800,236.8C4960,229,5120,114,5280,73.5C5440,33,5600,65,5760,138.8C5920,212,6080,327,6240,383.8C6400,441,6560,441,6720,408.3C6880,376,7040,310,7200,285.8C7360,261,7520,278,7680,236.8C7840,196,8000,98,8160,122.5C8320,147,8480,294,8640,334.8C8800,376,8960,310,9120,302.2C9280,294,9440,343,9600,318.5C9760,294,9920,196,10080,155.2C10240,114,10400,131,10560,187.8C10720,245,10880,343,11040,392C11200,441,11360,441,11440,441L11520,441L11520,490L11440,490C11360,490,11200,490,11040,490C10880,490,10720,490,10560,490C10400,490,10240,490,10080,490C9920,490,9760,490,9600,490C9440,490,9280,490,9120,490C8960,490,8800,490,8640,490C8480,490,8320,490,8160,490C8000,490,7840,490,7680,490C7520,490,7360,490,7200,490C7040,490,6880,490,6720,490C6560,490,6400,490,6240,490C6080,490,5920,490,5760,490C5600,490,5440,490,5280,490C5120,490,4960,490,4800,490C4640,490,4480,490,4320,490C4160,490,4000,490,3840,490C3680,490,3520,490,3360,490C3200,490,3040,490,2880,490C2720,490,2560,490,2400,490C2240,490,2080,490,1920,490C1760,490,1600,490,1440,490C1280,490,1120,490,960,490C800,490,640,490,480,490C320,490,160,490,80,490L0,490Z"/></svg>